# xmcd
#
# Track frame offsets:
#  150
#  14567
#  28347
#  43615
#  54195
#  70165
#  84840
#  98570
#  113652
#  126072
#
# Disc length: 1903 seconds
#
# Revision: 0
# Processed by: cddbd v1.4PL0 Copyright (c) Steve Scherf et al.
# Submitted via: AltoMP3_Maker 3.0
#
DISCID=75076d0a
DTITLE=James Foley - More hot country hits vol 3
DYEAR=1900
DGENRE=
TTITLE0=I like it,i love it
TTITLE1=Daddy's money
TTITLE2=Bobby-Ann Mason
TTITLE3=Sold
TTITLE4=Rock my world
TTITLE5=There goes my heart
TTITLE6=Thinking problem
TTITLE7=Third rate romance
TTITLE8=Love bug
TTITLE9=God bless texas
EXTD=
EXTT0=
EXTT1=
EXTT2=
EXTT3=
EXTT4=
EXTT5=
EXTT6=
EXTT7=
EXTT8=
EXTT9=
PLAYORDER=
